<mxfile host="Electron" modified="2023-08-28T19:25:27.080Z" agent="Mozilla/5.0 (Windows NT 10.0; Win64; x64) AppleWebKit/537.36 (KHTML, like Gecko) draw.io/21.6.8 Chrome/114.0.5735.289 Electron/25.5.0 Safari/537.36" etag="7-EJURNTHCI6K3v5ouew" version="21.6.8" type="device">
  <diagram id="C5RBs43oDa-KdzZeNtuy" name="Page-1">
    <mxGraphModel dx="1350" dy="1996" grid="1" gridSize="10" guides="1" tooltips="1" connect="1" arrows="1" fold="1" page="1" pageScale="1" pageWidth="827" pageHeight="1169" math="0" shadow="0">
      <root>
        <mxCell id="WIyWlLk6GJQsqaUBKTNV-0" />
        <mxCell id="WIyWlLk6GJQsqaUBKTNV-1" parent="WIyWlLk6GJQsqaUBKTNV-0" />
        <mxCell id="Zr3YV9-SOkKFC5Auc83V-12" style="edgeStyle=orthogonalEdgeStyle;rounded=0;orthogonalLoop=1;jettySize=auto;html=1;entryX=0.5;entryY=0;entryDx=0;entryDy=0;endArrow=none;endFill=0;exitX=1;exitY=0.5;exitDx=0;exitDy=0;" parent="WIyWlLk6GJQsqaUBKTNV-1" source="rlrYf8KF5iCWznq4yENe-0" target="Zr3YV9-SOkKFC5Auc83V-14" edge="1">
          <mxGeometry relative="1" as="geometry">
            <mxPoint x="348" y="-158" as="targetPoint" />
            <mxPoint x="230" y="-183" as="sourcePoint" />
          </mxGeometry>
        </mxCell>
        <mxCell id="Zr3YV9-SOkKFC5Auc83V-14" value="GameManager&lt;br&gt;" style="swimlane;fontStyle=1;align=center;verticalAlign=top;childLayout=stackLayout;horizontal=1;startSize=26;horizontalStack=0;resizeParent=1;resizeParentMax=0;resizeLast=0;collapsible=1;marginBottom=0;whiteSpace=wrap;html=1;" parent="WIyWlLk6GJQsqaUBKTNV-1" vertex="1">
          <mxGeometry x="280" y="-1010" width="200" height="300" as="geometry" />
        </mxCell>
        <mxCell id="Zr3YV9-SOkKFC5Auc83V-15" value="- window_size: sf:vector2u" style="text;strokeColor=none;fillColor=none;align=left;verticalAlign=top;spacingLeft=4;spacingRight=4;overflow=hidden;rotatable=0;points=[[0,0.5],[1,0.5]];portConstraint=eastwest;whiteSpace=wrap;html=1;" parent="Zr3YV9-SOkKFC5Auc83V-14" vertex="1">
          <mxGeometry y="26" width="200" height="26" as="geometry" />
        </mxCell>
        <mxCell id="Zr3YV9-SOkKFC5Auc83V-24" value="- window: sf::RenderRindow" style="text;strokeColor=none;fillColor=none;align=left;verticalAlign=top;spacingLeft=4;spacingRight=4;overflow=hidden;rotatable=0;points=[[0,0.5],[1,0.5]];portConstraint=eastwest;whiteSpace=wrap;html=1;" parent="Zr3YV9-SOkKFC5Auc83V-14" vertex="1">
          <mxGeometry y="52" width="200" height="26" as="geometry" />
        </mxCell>
        <mxCell id="Zr3YV9-SOkKFC5Auc83V-23" style="text;strokeColor=none;fillColor=none;align=left;verticalAlign=top;spacingLeft=4;spacingRight=4;overflow=hidden;rotatable=0;points=[[0,0.5],[1,0.5]];portConstraint=eastwest;whiteSpace=wrap;html=1;" parent="Zr3YV9-SOkKFC5Auc83V-14" vertex="1">
          <mxGeometry y="78" width="200" height="26" as="geometry" />
        </mxCell>
        <mxCell id="Zr3YV9-SOkKFC5Auc83V-22" style="text;strokeColor=none;fillColor=none;align=left;verticalAlign=top;spacingLeft=4;spacingRight=4;overflow=hidden;rotatable=0;points=[[0,0.5],[1,0.5]];portConstraint=eastwest;whiteSpace=wrap;html=1;" parent="Zr3YV9-SOkKFC5Auc83V-14" vertex="1">
          <mxGeometry y="104" width="200" height="26" as="geometry" />
        </mxCell>
        <mxCell id="Zr3YV9-SOkKFC5Auc83V-16" value="" style="line;strokeWidth=1;fillColor=none;align=left;verticalAlign=middle;spacingTop=-1;spacingLeft=3;spacingRight=3;rotatable=0;labelPosition=right;points=[];portConstraint=eastwest;strokeColor=inherit;" parent="Zr3YV9-SOkKFC5Auc83V-14" vertex="1">
          <mxGeometry y="130" width="200" height="8" as="geometry" />
        </mxCell>
        <mxCell id="Zr3YV9-SOkKFC5Auc83V-18" value="+ run(): void" style="text;strokeColor=none;fillColor=none;align=left;verticalAlign=top;spacingLeft=4;spacingRight=4;overflow=hidden;rotatable=0;points=[[0,0.5],[1,0.5]];portConstraint=eastwest;whiteSpace=wrap;html=1;" parent="Zr3YV9-SOkKFC5Auc83V-14" vertex="1">
          <mxGeometry y="138" width="200" height="26" as="geometry" />
        </mxCell>
        <mxCell id="Zr3YV9-SOkKFC5Auc83V-21" value="- init(): void" style="text;strokeColor=none;fillColor=none;align=left;verticalAlign=top;spacingLeft=4;spacingRight=4;overflow=hidden;rotatable=0;points=[[0,0.5],[1,0.5]];portConstraint=eastwest;whiteSpace=wrap;html=1;" parent="Zr3YV9-SOkKFC5Auc83V-14" vertex="1">
          <mxGeometry y="164" width="200" height="26" as="geometry" />
        </mxCell>
        <mxCell id="rlrYf8KF5iCWznq4yENe-25" value="- createController(inputType):&lt;br&gt;&amp;nbsp;controller*" style="text;strokeColor=none;fillColor=none;align=left;verticalAlign=top;spacingLeft=4;spacingRight=4;overflow=hidden;rotatable=0;points=[[0,0.5],[1,0.5]];portConstraint=eastwest;whiteSpace=wrap;html=1;" vertex="1" parent="Zr3YV9-SOkKFC5Auc83V-14">
          <mxGeometry y="190" width="200" height="40" as="geometry" />
        </mxCell>
        <mxCell id="Zr3YV9-SOkKFC5Auc83V-19" value="- update(): void" style="text;strokeColor=none;fillColor=none;align=left;verticalAlign=top;spacingLeft=4;spacingRight=4;overflow=hidden;rotatable=0;points=[[0,0.5],[1,0.5]];portConstraint=eastwest;whiteSpace=wrap;html=1;" parent="Zr3YV9-SOkKFC5Auc83V-14" vertex="1">
          <mxGeometry y="230" width="200" height="26" as="geometry" />
        </mxCell>
        <mxCell id="Zr3YV9-SOkKFC5Auc83V-20" value="- controllerType&lt;br&gt;-&amp;gt;process_input(): void" style="text;strokeColor=none;fillColor=none;align=left;verticalAlign=top;spacingLeft=4;spacingRight=4;overflow=hidden;rotatable=0;points=[[0,0.5],[1,0.5]];portConstraint=eastwest;whiteSpace=wrap;html=1;" parent="Zr3YV9-SOkKFC5Auc83V-14" vertex="1">
          <mxGeometry y="256" width="200" height="44" as="geometry" />
        </mxCell>
        <mxCell id="Zr3YV9-SOkKFC5Auc83V-30" value="PlayerController" style="swimlane;fontStyle=1;align=center;verticalAlign=top;childLayout=stackLayout;horizontal=1;startSize=26;horizontalStack=0;resizeParent=1;resizeParentMax=0;resizeLast=0;collapsible=1;marginBottom=0;whiteSpace=wrap;html=1;" parent="WIyWlLk6GJQsqaUBKTNV-1" vertex="1">
          <mxGeometry x="650" y="50" width="160" height="86" as="geometry" />
        </mxCell>
        <mxCell id="Zr3YV9-SOkKFC5Auc83V-31" value="+ field: type" style="text;strokeColor=none;fillColor=none;align=left;verticalAlign=top;spacingLeft=4;spacingRight=4;overflow=hidden;rotatable=0;points=[[0,0.5],[1,0.5]];portConstraint=eastwest;whiteSpace=wrap;html=1;" parent="Zr3YV9-SOkKFC5Auc83V-30" vertex="1">
          <mxGeometry y="26" width="160" height="26" as="geometry" />
        </mxCell>
        <mxCell id="Zr3YV9-SOkKFC5Auc83V-32" value="" style="line;strokeWidth=1;fillColor=none;align=left;verticalAlign=middle;spacingTop=-1;spacingLeft=3;spacingRight=3;rotatable=0;labelPosition=right;points=[];portConstraint=eastwest;strokeColor=inherit;" parent="Zr3YV9-SOkKFC5Auc83V-30" vertex="1">
          <mxGeometry y="52" width="160" height="8" as="geometry" />
        </mxCell>
        <mxCell id="Zr3YV9-SOkKFC5Auc83V-33" value="+ method(type): type" style="text;strokeColor=none;fillColor=none;align=left;verticalAlign=top;spacingLeft=4;spacingRight=4;overflow=hidden;rotatable=0;points=[[0,0.5],[1,0.5]];portConstraint=eastwest;whiteSpace=wrap;html=1;" parent="Zr3YV9-SOkKFC5Auc83V-30" vertex="1">
          <mxGeometry y="60" width="160" height="26" as="geometry" />
        </mxCell>
        <mxCell id="rlrYf8KF5iCWznq4yENe-0" value="main" style="html=1;whiteSpace=wrap;" vertex="1" parent="WIyWlLk6GJQsqaUBKTNV-1">
          <mxGeometry x="30" y="-1100" width="110" height="50" as="geometry" />
        </mxCell>
        <mxCell id="rlrYf8KF5iCWznq4yENe-21" style="edgeStyle=orthogonalEdgeStyle;rounded=0;orthogonalLoop=1;jettySize=auto;html=1;entryX=0.25;entryY=1;entryDx=0;entryDy=0;" edge="1" parent="WIyWlLk6GJQsqaUBKTNV-1" source="rlrYf8KF5iCWznq4yENe-6" target="rlrYf8KF5iCWznq4yENe-24">
          <mxGeometry relative="1" as="geometry">
            <mxPoint x="686.9599999999998" y="-623.7660000000001" as="targetPoint" />
          </mxGeometry>
        </mxCell>
        <mxCell id="rlrYf8KF5iCWznq4yENe-6" value="KeyboardController" style="swimlane;fontStyle=1;align=center;verticalAlign=top;childLayout=stackLayout;horizontal=1;startSize=26;horizontalStack=0;resizeParent=1;resizeParentMax=0;resizeLast=0;collapsible=1;marginBottom=0;whiteSpace=wrap;html=1;" vertex="1" parent="WIyWlLk6GJQsqaUBKTNV-1">
          <mxGeometry x="510" y="-584" width="180" height="86" as="geometry" />
        </mxCell>
        <mxCell id="rlrYf8KF5iCWznq4yENe-7" value="+ field: type" style="text;strokeColor=none;fillColor=none;align=left;verticalAlign=top;spacingLeft=4;spacingRight=4;overflow=hidden;rotatable=0;points=[[0,0.5],[1,0.5]];portConstraint=eastwest;whiteSpace=wrap;html=1;" vertex="1" parent="rlrYf8KF5iCWznq4yENe-6">
          <mxGeometry y="26" width="180" height="26" as="geometry" />
        </mxCell>
        <mxCell id="rlrYf8KF5iCWznq4yENe-8" value="" style="line;strokeWidth=1;fillColor=none;align=left;verticalAlign=middle;spacingTop=-1;spacingLeft=3;spacingRight=3;rotatable=0;labelPosition=right;points=[];portConstraint=eastwest;strokeColor=inherit;" vertex="1" parent="rlrYf8KF5iCWznq4yENe-6">
          <mxGeometry y="52" width="180" height="8" as="geometry" />
        </mxCell>
        <mxCell id="rlrYf8KF5iCWznq4yENe-9" value="+ processInput(): override void" style="text;strokeColor=none;fillColor=none;align=left;verticalAlign=top;spacingLeft=4;spacingRight=4;overflow=hidden;rotatable=0;points=[[0,0.5],[1,0.5]];portConstraint=eastwest;whiteSpace=wrap;html=1;" vertex="1" parent="rlrYf8KF5iCWznq4yENe-6">
          <mxGeometry y="60" width="180" height="26" as="geometry" />
        </mxCell>
        <mxCell id="rlrYf8KF5iCWznq4yENe-10" value="" style="ellipse;html=1;shape=startState;fillColor=#000000;strokeColor=#ff0000;" vertex="1" parent="WIyWlLk6GJQsqaUBKTNV-1">
          <mxGeometry x="70" y="-1160" width="30" height="30" as="geometry" />
        </mxCell>
        <mxCell id="rlrYf8KF5iCWznq4yENe-11" value="" style="edgeStyle=orthogonalEdgeStyle;html=1;verticalAlign=bottom;endArrow=open;endSize=8;strokeColor=#ff0000;rounded=0;entryX=0.5;entryY=-0.058;entryDx=0;entryDy=0;entryPerimeter=0;" edge="1" source="rlrYf8KF5iCWznq4yENe-10" parent="WIyWlLk6GJQsqaUBKTNV-1" target="rlrYf8KF5iCWznq4yENe-0">
          <mxGeometry relative="1" as="geometry">
            <mxPoint x="85" y="-1110" as="targetPoint" />
          </mxGeometry>
        </mxCell>
        <mxCell id="rlrYf8KF5iCWznq4yENe-22" style="edgeStyle=orthogonalEdgeStyle;rounded=0;orthogonalLoop=1;jettySize=auto;html=1;entryX=0.75;entryY=1;entryDx=0;entryDy=0;" edge="1" parent="WIyWlLk6GJQsqaUBKTNV-1" source="rlrYf8KF5iCWznq4yENe-12" target="rlrYf8KF5iCWznq4yENe-24">
          <mxGeometry relative="1" as="geometry">
            <mxPoint x="727.6400000000001" y="-623.22" as="targetPoint" />
          </mxGeometry>
        </mxCell>
        <mxCell id="rlrYf8KF5iCWznq4yENe-12" value="ConsoleController" style="swimlane;fontStyle=1;align=center;verticalAlign=top;childLayout=stackLayout;horizontal=1;startSize=26;horizontalStack=0;resizeParent=1;resizeParentMax=0;resizeLast=0;collapsible=1;marginBottom=0;whiteSpace=wrap;html=1;" vertex="1" parent="WIyWlLk6GJQsqaUBKTNV-1">
          <mxGeometry x="720" y="-584" width="180" height="86" as="geometry" />
        </mxCell>
        <mxCell id="rlrYf8KF5iCWznq4yENe-13" value="+ field: type" style="text;strokeColor=none;fillColor=none;align=left;verticalAlign=top;spacingLeft=4;spacingRight=4;overflow=hidden;rotatable=0;points=[[0,0.5],[1,0.5]];portConstraint=eastwest;whiteSpace=wrap;html=1;" vertex="1" parent="rlrYf8KF5iCWznq4yENe-12">
          <mxGeometry y="26" width="180" height="26" as="geometry" />
        </mxCell>
        <mxCell id="rlrYf8KF5iCWznq4yENe-14" value="" style="line;strokeWidth=1;fillColor=none;align=left;verticalAlign=middle;spacingTop=-1;spacingLeft=3;spacingRight=3;rotatable=0;labelPosition=right;points=[];portConstraint=eastwest;strokeColor=inherit;" vertex="1" parent="rlrYf8KF5iCWznq4yENe-12">
          <mxGeometry y="52" width="180" height="8" as="geometry" />
        </mxCell>
        <mxCell id="rlrYf8KF5iCWznq4yENe-15" value="+ processInput(): override&amp;nbsp;void" style="text;strokeColor=none;fillColor=none;align=left;verticalAlign=top;spacingLeft=4;spacingRight=4;overflow=hidden;rotatable=0;points=[[0,0.5],[1,0.5]];portConstraint=eastwest;whiteSpace=wrap;html=1;" vertex="1" parent="rlrYf8KF5iCWznq4yENe-12">
          <mxGeometry y="60" width="180" height="26" as="geometry" />
        </mxCell>
        <mxCell id="Zr3YV9-SOkKFC5Auc83V-25" style="edgeStyle=orthogonalEdgeStyle;rounded=0;orthogonalLoop=1;jettySize=auto;html=1;entryX=1;entryY=0.5;entryDx=0;entryDy=0;exitX=0;exitY=0.25;exitDx=0;exitDy=0;" parent="WIyWlLk6GJQsqaUBKTNV-1" source="rlrYf8KF5iCWznq4yENe-24" edge="1" target="rlrYf8KF5iCWznq4yENe-25">
          <mxGeometry relative="1" as="geometry">
            <mxPoint x="590" y="-860" as="targetPoint" />
            <mxPoint x="520" y="-780" as="sourcePoint" />
          </mxGeometry>
        </mxCell>
        <mxCell id="rlrYf8KF5iCWznq4yENe-24" value="&lt;p style=&quot;margin:0px;margin-top:4px;text-align:center;&quot;&gt;&lt;i&gt;&amp;lt;&amp;lt;Interface&amp;gt;&amp;gt;&lt;/i&gt;&lt;br&gt;&lt;b&gt;Controller&lt;/b&gt;&lt;/p&gt;&lt;hr size=&quot;1&quot;&gt;&lt;p style=&quot;margin:0px;margin-left:4px;&quot;&gt;+ field1: Type&lt;br&gt;&lt;/p&gt;&lt;hr size=&quot;1&quot;&gt;&lt;p style=&quot;margin:0px;margin-left:4px;&quot;&gt;+ processInput(): virtual void&lt;/p&gt;" style="verticalAlign=top;align=left;overflow=fill;fontSize=12;fontFamily=Helvetica;html=1;whiteSpace=wrap;" vertex="1" parent="WIyWlLk6GJQsqaUBKTNV-1">
          <mxGeometry x="600" y="-810" width="190" height="100" as="geometry" />
        </mxCell>
        <mxCell id="rlrYf8KF5iCWznq4yENe-26" style="edgeStyle=orthogonalEdgeStyle;rounded=0;orthogonalLoop=1;jettySize=auto;html=1;entryX=0;entryY=0.75;entryDx=0;entryDy=0;" edge="1" parent="WIyWlLk6GJQsqaUBKTNV-1" source="Zr3YV9-SOkKFC5Auc83V-20" target="rlrYf8KF5iCWznq4yENe-24">
          <mxGeometry relative="1" as="geometry" />
        </mxCell>
      </root>
    </mxGraphModel>
  </diagram>
</mxfile>
